<mxfile host="app.diagrams.net" agent="Mozilla/5.0 (Windows NT 10.0; Win64; x64) AppleWebKit/537.36 (KHTML, like Gecko) Chrome/131.0.0.0 Safari/537.36" version="24.8.6">
  <diagram name="Page-1" id="bAsc4YmC1CUTKu48vMgH">
    <mxGraphModel dx="1050" dy="522" grid="1" gridSize="10" guides="1" tooltips="1" connect="1" arrows="1" fold="1" page="1" pageScale="1" pageWidth="850" pageHeight="1100" math="0" shadow="0">
      <root>
        <mxCell id="0" />
        <mxCell id="1" parent="0" />
        <mxCell id="nHL_V9PENJ8lBhigYzfl-5" style="edgeStyle=orthogonalEdgeStyle;rounded=0;orthogonalLoop=1;jettySize=auto;html=1;entryX=0.5;entryY=0;entryDx=0;entryDy=0;" edge="1" parent="1" source="nHL_V9PENJ8lBhigYzfl-1" target="nHL_V9PENJ8lBhigYzfl-3">
          <mxGeometry relative="1" as="geometry" />
        </mxCell>
        <mxCell id="nHL_V9PENJ8lBhigYzfl-1" value="Bắt đầu" style="ellipse;whiteSpace=wrap;html=1;fontStyle=1" vertex="1" parent="1">
          <mxGeometry x="340" y="30" width="120" height="80" as="geometry" />
        </mxCell>
        <mxCell id="nHL_V9PENJ8lBhigYzfl-9" value="" style="edgeStyle=orthogonalEdgeStyle;rounded=0;orthogonalLoop=1;jettySize=auto;html=1;" edge="1" parent="1" source="nHL_V9PENJ8lBhigYzfl-3" target="nHL_V9PENJ8lBhigYzfl-7">
          <mxGeometry relative="1" as="geometry" />
        </mxCell>
        <mxCell id="nHL_V9PENJ8lBhigYzfl-3" value="Nhập giá trị a" style="whiteSpace=wrap;html=1;fontStyle=1" vertex="1" parent="1">
          <mxGeometry x="340" y="150" width="120" height="60" as="geometry" />
        </mxCell>
        <mxCell id="nHL_V9PENJ8lBhigYzfl-11" style="edgeStyle=orthogonalEdgeStyle;rounded=0;orthogonalLoop=1;jettySize=auto;html=1;" edge="1" parent="1" source="nHL_V9PENJ8lBhigYzfl-7">
          <mxGeometry relative="1" as="geometry">
            <mxPoint x="280" y="360" as="targetPoint" />
          </mxGeometry>
        </mxCell>
        <mxCell id="nHL_V9PENJ8lBhigYzfl-20" value="Sai" style="edgeLabel;html=1;align=center;verticalAlign=middle;resizable=0;points=[];" vertex="1" connectable="0" parent="nHL_V9PENJ8lBhigYzfl-11">
          <mxGeometry x="-0.1582" relative="1" as="geometry">
            <mxPoint y="-11" as="offset" />
          </mxGeometry>
        </mxCell>
        <mxCell id="nHL_V9PENJ8lBhigYzfl-12" style="edgeStyle=orthogonalEdgeStyle;rounded=0;orthogonalLoop=1;jettySize=auto;html=1;" edge="1" parent="1" source="nHL_V9PENJ8lBhigYzfl-7">
          <mxGeometry relative="1" as="geometry">
            <mxPoint x="520" y="360" as="targetPoint" />
          </mxGeometry>
        </mxCell>
        <mxCell id="nHL_V9PENJ8lBhigYzfl-19" value="Đúng" style="edgeLabel;html=1;align=center;verticalAlign=middle;resizable=0;points=[];" vertex="1" connectable="0" parent="nHL_V9PENJ8lBhigYzfl-12">
          <mxGeometry x="-0.1486" relative="1" as="geometry">
            <mxPoint y="-10" as="offset" />
          </mxGeometry>
        </mxCell>
        <mxCell id="nHL_V9PENJ8lBhigYzfl-7" value="Kiểm tra&lt;div&gt;n/2 dư 0?&lt;/div&gt;" style="rhombus;whiteSpace=wrap;html=1;fontStyle=1" vertex="1" parent="1">
          <mxGeometry x="330" y="250" width="140" height="80" as="geometry" />
        </mxCell>
        <mxCell id="nHL_V9PENJ8lBhigYzfl-16" style="edgeStyle=orthogonalEdgeStyle;rounded=0;orthogonalLoop=1;jettySize=auto;html=1;" edge="1" parent="1" source="nHL_V9PENJ8lBhigYzfl-13">
          <mxGeometry relative="1" as="geometry">
            <mxPoint x="400" y="510" as="targetPoint" />
            <Array as="points">
              <mxPoint x="280" y="450" />
              <mxPoint x="401" y="450" />
            </Array>
          </mxGeometry>
        </mxCell>
        <mxCell id="nHL_V9PENJ8lBhigYzfl-13" value="&lt;b&gt;Thông báo n&amp;nbsp;&lt;/b&gt;&lt;div&gt;&lt;b&gt;lẻ&lt;/b&gt;&lt;/div&gt;" style="shape=parallelogram;perimeter=parallelogramPerimeter;whiteSpace=wrap;html=1;fixedSize=1;" vertex="1" parent="1">
          <mxGeometry x="220" y="360" width="120" height="60" as="geometry" />
        </mxCell>
        <mxCell id="nHL_V9PENJ8lBhigYzfl-17" style="edgeStyle=orthogonalEdgeStyle;rounded=0;orthogonalLoop=1;jettySize=auto;html=1;" edge="1" parent="1" source="nHL_V9PENJ8lBhigYzfl-14" target="nHL_V9PENJ8lBhigYzfl-18">
          <mxGeometry relative="1" as="geometry">
            <mxPoint x="400" y="510" as="targetPoint" />
            <Array as="points">
              <mxPoint x="520" y="450" />
              <mxPoint x="401" y="450" />
            </Array>
          </mxGeometry>
        </mxCell>
        <mxCell id="nHL_V9PENJ8lBhigYzfl-14" value="Thông báo n&amp;nbsp;&lt;div&gt;chẵn&lt;/div&gt;" style="shape=parallelogram;perimeter=parallelogramPerimeter;whiteSpace=wrap;html=1;fixedSize=1;fontStyle=1" vertex="1" parent="1">
          <mxGeometry x="460" y="360" width="120" height="60" as="geometry" />
        </mxCell>
        <mxCell id="nHL_V9PENJ8lBhigYzfl-18" value="Kết thúc" style="ellipse;whiteSpace=wrap;html=1;fontStyle=1" vertex="1" parent="1">
          <mxGeometry x="340" y="510" width="120" height="70" as="geometry" />
        </mxCell>
      </root>
    </mxGraphModel>
  </diagram>
</mxfile>
